inDegrees=no
num_controls=7
num_derivatives=13
num_iterations=123
num_multipliers=7
num_parameters=0
num_slacks=7
num_states=26
objective=0.453595
objective_accelerations=0.044737
objective_balance=0.000984
objective_effort=0.034562
objective_height=0.368934
objective_ligament=0.004378
solver_duration=1445.711219
status=Solve_Succeeded
success=true
DataType=double
version=3
OpenSimVersion=4.5
endheader
time	/jointset/ground_pelvis/pelvis_tilt/value	/jointset/ground_pelvis/pelvis_tx/value	/jointset/ground_pelvis/pelvis_ty/value	/jointset/hip_r/hip_flexion_r/value	/jointset/hip_r/hip_adduction_r/value	/jointset/hip_r/hip_rotation_r/value	/jointset/back/lumbar_extension/value	/jointset/patellofemoral_r/patellar_flexion_r/value	/jointset/knee_r/knee_flexion_r/value	/jointset/knee_r/knee_adduction_r/value	/jointset/knee_r/knee_rotation_r/value	/jointset/ankle_r/ankle_angle_r/value	/jointset/subtalar_r/subtalar_angle_r/value	/jointset/ground_pelvis/pelvis_tilt/speed	/jointset/ground_pelvis/pelvis_tx/speed	/jointset/ground_pelvis/pelvis_ty/speed	/jointset/hip_r/hip_flexion_r/speed	/jointset/hip_r/hip_adduction_r/speed	/jointset/hip_r/hip_rotation_r/speed	/jointset/back/lumbar_extension/speed	/jointset/patellofemoral_r/patellar_flexion_r/speed	/jointset/knee_r/knee_flexion_r/speed	/jointset/knee_r/knee_adduction_r/speed	/jointset/knee_r/knee_rotation_r/speed	/jointset/ankle_r/ankle_angle_r/speed	/jointset/subtalar_r/subtalar_angle_r/speed	/forceset/tau_hip_flexion_r	/forceset/tau_hip_adduction_r	/forceset/tau_hip_rotation_r	/forceset/tau_knee_flexion_r	/forceset/tau_ankle_angle_r	/forceset/tau_subtalar_angle_r	/forceset/tau_lumbar_extension	lambda_cid13_p0	lambda_cid14_p0	lambda_cid14_p1	lambda_cid14_p2	lambda_cid14_p3	lambda_cid14_p4	lambda_cid14_p5	/jointset/ground_pelvis/pelvis_tilt/accel	/jointset/ground_pelvis/pelvis_tx/accel	/jointset/ground_pelvis/pelvis_ty/accel	/jointset/hip_r/hip_flexion_r/accel	/jointset/hip_r/hip_adduction_r/accel	/jointset/hip_r/hip_rotation_r/accel	/jointset/back/lumbar_extension/accel	/jointset/patellofemoral_r/patellar_flexion_r/accel	/jointset/knee_r/knee_flexion_r/accel	/jointset/knee_r/knee_adduction_r/accel	/jointset/knee_r/knee_rotation_r/accel	/jointset/ankle_r/ankle_angle_r/accel	/jointset/subtalar_r/subtalar_angle_r/accel	gamma_cid13_p0	gamma_cid14_p0	gamma_cid14_p1	gamma_cid14_p2	gamma_cid14_p3	gamma_cid14_p4	gamma_cid14_p5
1	-0.1817214565755692	-0.005831882246041984	0.6618619412845116	1.314497354835927	-0.2361257998772464	-0.1031858061116047	-0.7853910902221342	1.449991604324783	1.449991604324517	-0.1745305805367413	0.1743379424218897	0.43626213124757	0.1802977990940624	0.06926313742038499	0.005248612059678066	0.01514264995329463	-0.1005656151959106	-0.0007909651815639632	-0.002147388339666457	0.001162597303374313	-0.01889395814567158	-0.01889395814567349	0.004231199454979281	-0.0005415492638730438	0.01226165117987892	0.004966991970546683	-0.2981690602412314	0.02306265347375075	0.01450538340395993	-0.467058705919557	-0.007752542388062312	0.008867018328325581	0.337916624439743	-0.04181237690661304	-53.30707320660038	-8.635036977824349	5.399280186905592	5.013099116404038	-761.4044947670036	75.76922598593634	1.106801273266828	0.1834587834061344	1.681501220221558	-5.022385177166123	0.2592994581990922	-0.4542069007270053	0.08868533159817361	-4.821918569272504	-4.821918569272842	0.7703930009966654	-0.0151276343562308	-1.064414017357194	-0.05543769283625138	9.365858741697542e-10	3.211329721390898e-10	1.498835568770107e-08	6.996297266334043e-09	1.736218314293194e-09	-5.007230435263341e-09	2.187084332159361e-08
1.01	-0.1809745933402929	-0.00577001484873095	0.662097248316982	1.313241758888112	-0.2361209936610104	-0.1032272622504356	-0.7853722460783532	1.449562231752087	1.449562231751907	-0.1744468113295612	0.1743316319024002	0.4363317903502471	0.1803442943905645	0.08006069721803985	0.007148470028592696	0.03191186481370421	-0.1505225805535383	0.001737862583889659	-0.006111989676906401	0.002813512929623209	-0.06696218983759705	-0.06696218983760317	0.0125693928036096	-0.0007059493613617544	0.001701106963990577	0.004320009552213461	-0.2989672299916263	0.02309783620232177	0.01455907050135409	-0.4669533943667694	-0.007988361616096746	0.008869380676602846	0.3390224386521317	-0.04180408799422171	-53.41137567023002	-8.649403663863829	5.398292652126067	4.763124400191426	-762.0271151413855	75.76178098107309	1.058913382852758	0.1967896622795755	1.673595623024621	-4.977701432923971	0.2475278410107543	-0.3628070747552664	0.2343868991959321	-4.796521474529218	-4.796521474529648	0.8725458876015111	-0.01489457908991178	-1.047234484242543	-0.07112631482884953	4.903841883540135e-09	6.041266219598607e-09	3.984606436581604e-08	3.856468086045884e-08	-1.572256057574448e-10	-1.112254589147062e-08	7.24694412832496e-08
1.02	-0.1801212184970726	-0.00568844080000171	0.6625000402988713	1.311487523443147	-0.2360913284860622	-0.1033074084675465	-0.7853306743340785	1.448652727661396	1.448652727661307	-0.1742782575117383	0.1743241177056033	0.4362967720386488	0.1803839603031837	0.09056545900921294	0.00918994234331884	0.04863963983707319	-0.2002935146256813	0.004180826561036979	-0.009885403995459011	0.005708117398178667	-0.114920261744589	-0.1149202617445977	0.02118812158445413	-0.0007822847246400492	-0.00867383167341359	0.003601115194000717	-0.2997653997420226	0.02313301893088412	0.01461275759882158	-0.4668480828139734	-0.008224180844133322	0.008871743024861016	0.3401282528645189	-0.04180336293907447	-53.52362589632258	-8.660879598290329	5.391952387209471	4.511986158531866	-762.7810862060975	75.79087077370664	1.048241671970469	0.2117816525684395	1.673213252813438	-4.985178920069176	0.2421267005378308	-0.4159694969895391	0.3374231000594257	-4.799886612285795	-4.799886612285813	0.8265000874395053	0.0024853124858523	-1.027292901660354	-0.06982008081215436	1.042610800716956e-08	1.533950358416964e-08	6.719469904182422e-08	8.032544164057347e-08	-6.600290006715016e-09	-1.765385098594217e-08	1.363434197558275e-07
1.03	-0.1791641538548136	-0.005585932880397613	0.6630698850288749	1.309236661814341	-0.2360375486245966	-0.103424490215977	-0.7852545242605434	1.447263953321833	1.447263953321688	-0.174022341812765	0.1743161677127722	0.4361584385193382	0.1804160388475773	0.1008076174085108	0.0113164304100658	0.0653204748443215	-0.2498308772137978	0.006572848920785974	-0.01351271741644416	0.009672854319476563	-0.1628400697027285	-0.1628400697027338	0.030020087981595	-0.0008065110495219735	-0.0190111745691394	0.002799876329510274	-0.3003320588746192	0.02331968155562451	0.01466184005125327	-0.4660061499545895	-0.009447487515471639	0.008927234333177232	0.3408560895514739	-0.04182826845432473	-53.93502960468746	-8.680748778805333	5.363063582898497	4.802077879904518	-763.0910208168405	75.72749251635904	1.006230075286229	0.2137980513018474	1.664189049295863	-4.930820152826043	0.2374114612294901	-0.3333676986901644	0.4486425396776795	-4.788850644226401	-4.788850644225883	0.9153039759944944	-0.004663720268871579	-1.039699796966505	-0.08745404486548639	1.596424158094449e-08	2.467425221524182e-08	9.456875133005581e-08	1.221902062695248e-07	-1.308977910645738e-08	-2.418940087264092e-08	2.003528612948434e-07
1.04	-0.1781058621982863	-0.00546201694661127	0.6638062721938738	1.306491865514728	-0.2359599142480264	-0.1035772961854266	-0.7851341981074896	1.44539581635136	1.445395816351162	-0.1736773546377994	0.1743080180336292	0.4359161826083826	0.1804396693522062	0.1108108618628812	0.01347154517976832	0.08194812683618663	-0.2990804487876403	0.008951729581981172	-0.01703024819891744	0.01454333330128277	-0.2107927879268033	-0.2107927879268053	0.03900241678446301	-0.000822221986150877	-0.0294583100023781	0.001911507241099957	-0.3008987180072023	0.02350634418035506	0.01471092250376084	-0.4651642170951961	-0.01067079418681458	0.008982725641470792	0.341583926238441	-0.04186070971838644	-54.35439544525252	-8.697510783625329	5.328537451616911	5.08915017416285	-763.5345106038492	75.70132122622616	1.000458882984956	0.2175069931595421	1.6625766497368	-4.927620717214407	0.2394983608270725	-0.3940129692871612	0.5185715121610747	-4.806468665472855	-4.806468665472899	0.856572568584937	0.004188390136455084	-1.049251409162949	-0.08724612559613387	2.038360514512546e-08	3.175795692642512e-08	1.210687855191634e-07	1.59656023887497e-07	-1.657625458011593e-08	-2.926123225419972e-08	2.559246660091985e-07
1.05	-0.1769486779374607	-0.00531633260868354	0.6647086006808122	1.303256030970211	-0.2358586168021753	-0.1037647949730239	-0.7849605656122027	1.443048151547676	1.443048151547422	-0.173241831465471	0.1742998333927403	0.4355689955199356	0.180453915806583	0.1205890351246596	0.0156775243654758	0.09850156637428789	-0.3480340579475352	0.01130014709748196	-0.02045308966618579	0.02034463511432087	-0.2587290014339517	-0.2587290014339498	0.0481272592132812	-0.0008078912639243037	-0.03998858561660134	0.0009177872338319025	-0.3011963835255543	0.02361462595542277	0.01482179906695182	-0.4641687790231932	-0.0115179647291107	0.009001763694561888	0.342146299770004	-0.04189456673091601	-54.62800991077382	-8.708984517302262	5.298194588079674	5.196466268818495	-763.6323704743713	75.64133929548039	0.960961125273924	0.2239696471577878	1.64932007103434	-4.871363198178898	0.231397665607751	-0.3139401617406113	0.6351299195751546	-4.785526984842735	-4.785526984842113	0.9441940964331126	0.001129475243290875	-1.056336532076037	-0.1083878527908546	2.476800714650662e-08	3.87713165151119e-08	1.475415066426733e-07	1.969843744113762e-07	-1.996888587795938e-08	-3.42873224324729e-08	3.11232794572783e-07
1.06	-0.1756948190285175	-0.005148223225722471	0.6657759820561689	1.299532233897539	-0.2357340583374301	-0.1039860262605524	-0.7847240760180439	1.440221458750619	1.440221458750311	-0.1727143090655796	0.1742920068714676	0.4351162214964417	0.1804576344779873	0.1301457914864251	0.01795655418643598	0.1149587045198957	-0.3966729544195044	0.01360393336083137	-0.02377674818521256	0.02711475307535827	-0.3065983866013763	-0.3065983866013698	0.05740226229821514	-0.0007505980625973001	-0.05057569701178606	-0.0001940493533844214	-0.3014940490438839	0.0237229077304877	0.01493267563019458	-0.4631733409511831	-0.01236513527141079	0.009020801747644519	0.3427086733015876	-0.04193607463096184	-54.90967770527683	-8.717211821258303	5.262014902644719	5.300741996060882	-763.8659638750007	75.61908924518637	0.956175502982372	0.2321171202100715	1.643316371238104	-4.864678179629303	0.2305721103967993	-0.3741763796388361	0.7123347417609334	-4.793102997528095	-4.793102997527986	0.8866046998080904	0.0127808859565388	-1.060618565355263	-0.1108694415857921	2.876214276614904e-08	4.486101076288981e-08	1.685288117696284e-07	2.297953904095592e-07	-2.29578189116201e-08	-3.89939888531856e-08	3.570043182353373e-07
1.07	-0.1743463686352976	-0.004956949547241435	0.6670074033471066	1.295323600008083	-0.2355867080187748	-0.1042399791348607	-0.7844152893369274	1.43691648438596	1.436916484386004	-0.1720932583433606	0.1742849753668177	0.4345572472403	0.1804495792071079	0.139518274038082	0.02031125753691011	0.1313043673539774	-0.4450015133950715	0.01585715019035614	-0.0269874859950056	0.03478198905633293	-0.3543769946226726	-0.3543769946226702	0.06684235476242747	-0.000651558764290267	-0.06123302923474939	-0.00144185636961435	-0.3014231484795623	0.02377215390317194	0.0150947867818148	-0.4619358495621738	-0.01306264818399011	0.009026783992509687	0.3429454336120839	-0.04198456489431264	-55.11585018907144	-8.716209678475687	5.222444198551431	5.38059559475804	-763.6732625003015	75.56663126123648	0.9238929207507679	0.2391031194898647	1.627004489393111	-4.809088440062798	0.2213842902974447	-0.2905487087982206	0.8148289125075882	-4.767322551566681	-4.767322551567354	0.9778791427862941	0.00915542097666997	-1.070370622545375	-0.1354032726569276	3.273551953569896e-08	5.0901573875513e-08	1.892243394499582e-07	2.623661226563753e-07	-2.592527863335621e-08	-4.368366464849614e-08	4.022685756797517e-07
1.08	-0.1729049717586627	-0.004741737599850931	0.668401643916365	1.290633251792164	-0.2354170879676114	-0.1045252446326939	-0.7840256481187519	1.433134307371661	1.433134307372055	-0.1713767731718907	0.1742790722489941	0.4338912836475728	0.1804283124778629	0.1487350881694767	0.02274420796832959	0.147522560184059	-0.4930158197123334	0.01805787986256574	-0.03003927289074589	0.0432856604869821	-0.4020389165294209	-0.4020389165294224	0.07648915214897992	-0.0005249206976287656	-0.07197356432885334	-0.002836341026457141	-0.3013522479152272	0.0238214000758596	0.01525689793345104	-0.4606983581731617	-0.01376016109657024	0.009032766237380451	0.3431821939225926	-0.04204074582275463	-55.33015311567004	-8.711830866127341	5.176851713457586	5.456848214010763	-763.6186902864216	75.55223181617794	0.9250418189299433	0.2477665363991318	1.617822370438087	-4.801827647968214	0.2200746789337686	-0.3423861968282809	0.8796218316958333	-4.769765774618512	-4.769765774618353	0.9279456842761112	0.01830063962742908	-1.077259139583401	-0.140204969708368	3.632014878081525e-08	5.643924262254076e-08	2.073200395148796e-07	2.933673864719821e-07	-2.878620857198471e-08	-4.738832266139234e-08	4.420780489626068e-07
